<svg version="1.1" id="Layer_1" xmlns="http://www.w3.org/2000/svg" xmlns:xlink="http://www.w3.org/1999/xlink" x="0px" y="0px"
	 width="100%" viewBox="0 0 1179 1179" enable-background="new 0 0 1179 1179" xml:space="preserve">
<path fill="#260A32" opacity="1.000000" stroke="none" 
	d="
M1091.000000,1180.000000 
	C727.333313,1180.000000 364.166656,1180.000000 1.000000,1180.000000 
	C1.000000,787.000000 1.000000,394.000000 1.000000,1.000000 
	C394.000000,1.000000 787.000000,1.000000 1180.000000,1.000000 
	C1180.000000,394.000000 1180.000000,787.000000 1180.000000,1180.000000 
	C1150.500000,1180.000000 1121.000000,1180.000000 1091.000000,1180.000000 
M634.840881,547.226196 
	C661.144043,547.607483 687.446960,548.016113 713.751282,548.286865 
	C715.025085,548.299988 716.311340,547.100891 717.591797,546.466309 
	C716.321289,545.776367 715.063721,544.523315 713.777954,544.493774 
	C708.125549,544.363586 702.465332,544.628296 696.807312,544.674500 
	C676.006531,544.844299 655.205444,544.984009 633.407043,545.036926 
	C619.208008,545.036926 605.008972,545.036926 590.809998,545.036926 
	C590.806396,545.635193 590.802795,546.233521 590.799255,546.831787 
	C595.300171,547.090820 599.821716,547.163208 604.296753,547.656860 
	C609.677246,548.250427 615.017883,549.809814 620.376343,549.812378 
	C624.881042,549.814575 629.386597,548.185120 634.840881,547.226196 
M714.627441,663.181152 
	C658.054932,663.398743 601.482300,663.590698 544.909973,663.843445 
	C510.304810,663.998108 475.700073,664.246277 440.172272,664.211609 
	C419.722534,664.439697 399.272827,664.667725 377.878662,664.906311 
	C380.862366,664.088867 382.996216,661.430176 384.773224,665.387939 
	C384.956970,665.797119 386.241943,665.808716 387.022278,665.838501 
	C397.111420,666.224121 407.200928,666.829468 417.292053,666.862671 
	C425.211334,666.888733 433.132935,666.198059 441.975311,665.961792 
	C475.351349,666.059570 508.727509,666.135193 542.103394,666.274841 
	C548.396179,666.301147 554.687927,666.582397 561.409546,667.338501 
	C569.187805,667.559021 576.965149,667.881104 584.744690,667.945190 
	C587.490051,667.967834 590.240662,667.359802 593.918762,666.902161 
	C634.316650,667.117981 674.714478,667.333801 715.963440,667.766724 
	C717.219543,666.931335 718.475586,666.095947 719.731628,665.260498 
	C718.321838,664.563660 716.911987,663.866882 714.627441,663.181152 
M362.156311,646.707153 
	C362.156311,606.980774 362.156311,567.254456 362.156311,527.670776 
	C352.649231,527.670776 343.743011,527.670776 334.570160,527.670776 
	C334.570160,536.236938 334.423737,544.378601 334.638702,552.510742 
	C334.730988,556.001282 333.609833,557.093262 330.103271,557.046326 
	C316.278229,556.861511 302.449097,556.894470 288.622314,556.980225 
	C284.138855,557.008057 279.590851,557.041443 275.189209,557.774231 
	C264.546265,559.546021 255.857697,568.961121 255.763489,578.793335 
	C255.610260,594.783630 255.566803,610.779724 255.873352,626.765747 
	C255.933136,629.883179 257.245697,633.313477 258.933746,636.000671 
	C264.383636,644.676331 272.773407,647.901245 282.762146,647.877563 
	C308.085144,647.817566 333.408386,647.867676 358.731537,647.848389 
	C359.706085,647.847656 360.680450,647.585632 362.156311,646.707153 
M722.811584,609.254639 
	C722.803772,599.930237 722.811584,590.605713 722.784241,581.281372 
	C722.748718,569.190308 714.164429,558.439148 702.072571,557.937805 
	C680.975525,557.062927 659.824402,557.483948 638.695679,557.404297 
	C637.549194,557.399963 636.395996,557.759583 635.254761,557.993286 
	C623.645203,560.370239 616.174011,569.475525 616.180115,581.247742 
	C616.187866,596.233398 616.013062,611.223694 616.367249,626.201294 
	C616.448364,629.631409 617.704041,633.444885 619.567383,636.343872 
	C624.959290,644.732239 633.288025,647.917969 643.014771,647.919617 
	C667.991577,647.923828 692.968323,647.937439 717.945129,647.920715 
	C719.527649,647.919617 721.110046,647.690430 722.435059,647.587402 
	C722.435059,639.391907 722.435059,631.819031 722.435059,623.813660 
	C696.104187,623.813660 670.194336,623.813660 644.109497,623.813660 
	C644.109497,620.503967 644.109497,617.660278 644.109497,614.723633 
	C645.349426,614.653259 646.167236,614.566956 646.985168,614.566162 
	C670.795105,614.541504 694.605347,614.455566 718.414490,614.585632 
	C721.867249,614.604431 723.456238,613.777771 722.811584,609.254639 
M594.397583,585.032654 
	C600.210815,575.952148 606.024048,566.871643 612.315735,557.043823 
	C601.638794,557.043823 592.152893,556.925415 582.676636,557.174133 
	C581.287476,557.210571 579.499146,558.704712 578.649780,560.013794 
	C571.335022,571.286743 564.192139,582.671082 557.000977,594.024048 
	C552.265259,601.500549 547.534424,608.980103 542.521484,616.900513 
	C541.550903,615.632751 541.016907,615.036072 540.594543,614.368774 
	C529.149597,596.286438 517.728821,578.188782 506.250488,560.127747 
	C505.523499,558.983826 504.380493,557.270630 503.400696,557.249878 
	C493.366791,557.036804 483.326660,557.119385 472.627533,557.119385 
	C473.832275,559.268799 474.555023,560.723877 475.424561,562.085266 
	C492.382843,588.635559 509.486572,615.094482 526.208191,641.792786 
	C529.116821,646.436707 532.120483,648.669556 537.628235,648.034912 
	C541.738098,647.561340 545.988525,648.289551 550.092773,647.792175 
	C552.186523,647.538452 554.873901,646.275208 555.970398,644.601807 
	C568.786804,625.041016 581.351379,605.315308 594.397583,585.032654 
M416.568268,581.056519 
	C432.646973,581.056519 448.725677,581.056519 464.596436,581.056519 
	C464.596436,572.717407 464.596436,565.124695 464.596436,557.348328 
	C443.503662,557.348328 422.678070,556.657104 401.929688,557.623657 
	C390.608704,558.151001 379.736084,568.560608 380.216736,581.901184 
	C380.882294,600.373230 380.384155,618.887146 380.384277,637.383179 
	C380.384308,640.818604 380.384277,644.254028 380.384277,647.597168 
	C390.070496,647.597168 398.955170,647.597168 408.267761,647.597168 
	C408.267761,625.333008 408.267761,603.414978 408.267761,581.054871 
	C410.995667,581.054871 413.291748,581.054871 416.568268,581.056519 
M968.997864,643.489929 
	C971.053894,640.495605 973.894653,637.772217 975.037292,634.462585 
	C981.939209,614.471619 982.864624,594.165771 974.464294,574.519836 
	C967.113770,557.329346 944.682861,553.647339 931.046509,566.543640 
	C930.172363,567.370361 929.244080,568.139832 927.571533,569.614319 
	C927.571533,556.330872 927.571533,544.097900 927.571533,531.736145 
	C922.861084,531.736145 918.610474,531.736145 914.272766,531.736145 
	C914.272766,571.046082 914.272766,610.088867 914.272766,649.319702 
	C918.315491,649.319702 922.060303,649.319702 925.935913,649.319702 
	C926.243652,646.285156 926.521851,643.541687 926.800049,640.798218 
	C931.308960,646.687561 935.820740,651.252747 943.152527,651.791992 
	C952.625549,652.488647 961.398193,650.900940 968.997864,643.489929 
M793.757935,649.238708 
	C796.849731,649.238708 799.941467,649.238708 803.063599,649.238708 
	C803.063599,625.429443 803.204102,602.442871 802.984619,579.459717 
	C802.911377,571.785156 799.164551,565.807922 792.245300,562.130920 
	C782.203003,556.794312 767.482910,558.630371 759.018677,566.208557 
	C757.720398,567.370972 756.435974,568.548889 754.207764,570.569824 
	C754.207764,556.875061 754.207764,544.363403 754.207764,531.817749 
	C749.325500,531.817749 745.081848,531.817749 740.591858,531.817749 
	C740.591858,571.047485 740.591858,609.922668 740.591858,648.904541 
	C745.291077,648.904541 749.696350,648.904541 754.268921,648.904541 
	C754.268921,629.229248 754.805359,609.894897 754.051758,590.610962 
	C753.650635,580.346436 762.213928,572.598511 769.284180,570.915466 
	C778.819580,568.645569 788.490051,570.768860 788.972046,584.355957 
	C789.096008,587.850037 789.076355,591.350159 789.078247,594.847473 
	C789.087646,612.815247 789.082581,630.782959 789.082581,648.874146 
	C790.578613,649.019287 791.726013,649.130554 793.757935,649.238708 
M826.301392,617.499512 
	C826.301208,622.327637 826.141907,627.162048 826.333557,631.982544 
	C826.752991,642.534729 832.627747,650.176636 842.259888,651.297913 
	C848.620972,652.038391 855.199768,651.454468 861.629639,650.883789 
	C866.644104,650.438843 870.500122,647.449158 873.444885,643.354797 
	C874.157593,642.363892 875.029724,641.487549 875.730591,640.672424 
	C876.732117,643.830017 876.846375,648.193665 878.736877,649.191467 
	C881.423279,650.609253 885.416138,649.551514 888.815063,649.551514 
	C888.815063,620.079163 888.815063,591.077026 888.815063,562.235107 
	C884.094055,562.235107 879.849976,562.235107 875.343140,562.235107 
	C875.343140,571.726379 875.386047,580.870117 875.331909,590.013367 
	C875.267944,600.830994 875.579712,611.677551 874.886902,622.457520 
	C874.105896,634.609680 865.328674,641.558655 852.797546,640.975891 
	C843.205261,640.529846 840.181274,635.970215 840.178650,621.927856 
	C840.175720,606.111694 840.179077,590.295532 840.179565,574.479370 
	C840.179688,570.373230 840.179565,566.267090 840.179565,562.216675 
	C835.233337,562.216675 830.852844,562.216675 826.301392,562.216675 
	C826.301392,580.554138 826.301392,598.526855 826.301392,617.499512 
M228.503845,539.874939 
	C208.047272,540.362244 187.590698,540.849609 167.134109,541.336914 
	C193.750412,540.966919 220.365463,541.567566 246.983627,541.781860 
	C273.779602,541.997620 300.578674,541.829346 327.376373,541.829346 
	C327.479462,541.341003 327.582550,540.852722 327.685638,540.364380 
	C326.408661,539.940613 325.129364,539.140381 323.855011,539.148132 
	C292.404510,539.338501 260.954529,539.614380 228.503845,539.874939 
M181.501984,608.570679 
	C204.585434,608.570679 227.668900,608.570679 250.752350,608.570679 
	C250.882278,608.157532 251.012207,607.744446 251.142120,607.331299 
	C249.815186,606.934448 248.488113,606.194885 247.161301,606.195374 
	C237.009644,606.198975 226.857254,606.297729 216.706573,606.460022 
	C196.586517,606.781738 176.466019,607.098877 156.348373,607.539612 
	C138.594772,607.928528 120.845390,608.507996 103.092316,608.925720 
	C101.333084,608.967163 99.561119,608.467590 97.795067,608.219177 
	C97.848648,607.832092 97.902229,607.445007 97.955818,607.057922 
	C125.471123,607.562012 152.986435,608.066101 181.501984,608.570679 
M246.049789,574.548950 
	C205.086960,575.105896 164.124146,575.662842 123.161316,576.219849 
	C128.525574,575.728210 133.854706,576.467957 139.193832,576.548889 
	C175.152283,577.093750 211.112656,577.516602 247.073410,577.880676 
	C248.425552,577.894409 249.787903,576.898865 251.145493,576.373657 
	C249.734268,575.765259 248.323044,575.156860 246.049789,574.548950 
M697.493286,659.997559 
	C679.123352,659.997559 660.753479,659.997559 642.383545,659.997559 
	C642.385498,660.210388 642.387512,660.423279 642.389465,660.636108 
	C665.396973,660.636108 688.404419,660.636108 711.411926,660.636108 
	C711.413757,660.423279 711.415527,660.210388 711.417358,659.997559 
	C707.107971,659.997559 702.798584,659.997559 697.493286,659.997559 
M354.248474,666.021545 
	C356.033569,666.021545 357.818665,666.021545 359.603760,666.021545 
	C359.577667,665.792969 359.551605,665.564392 359.525513,665.335815 
	C351.192352,665.335815 342.859161,665.335815 334.525970,665.335815 
	C334.528046,665.564026 334.530121,665.792236 334.532166,666.020447 
	C340.792786,666.020447 347.053406,666.020447 354.248474,666.021545 
z"/>
<path fill="#FCFBFC" opacity="1.000000" stroke="none" 
	d="
M361.905609,647.076294 
	C360.680450,647.585632 359.706085,647.847656 358.731537,647.848389 
	C333.408386,647.867676 308.085144,647.817566 282.762146,647.877563 
	C272.773407,647.901245 264.383636,644.676331 258.933746,636.000671 
	C257.245697,633.313477 255.933136,629.883179 255.873352,626.765747 
	C255.566803,610.779724 255.610260,594.783630 255.763489,578.793335 
	C255.857697,568.961121 264.546265,559.546021 275.189209,557.774231 
	C279.590851,557.041443 284.138855,557.008057 288.622314,556.980225 
	C302.449097,556.894470 316.278229,556.861511 330.103271,557.046326 
	C333.609833,557.093262 334.730988,556.001282 334.638702,552.510742 
	C334.423737,544.378601 334.570160,536.236938 334.570160,527.670776 
	C343.743011,527.670776 352.649231,527.670776 362.156311,527.670776 
	C362.156311,567.254456 362.156311,606.980774 361.905609,647.076294 
M327.378448,623.942688 
	C329.642822,623.942688 331.907196,623.942688 334.162811,623.942688 
	C334.162811,609.321716 334.162811,595.313293 334.162811,580.920471 
	C317.934387,580.920471 302.149811,580.959534 286.365753,580.886902 
	C283.276794,580.872681 283.427277,582.785400 283.431824,584.871216 
	C283.448517,592.522705 283.427429,600.174255 283.423523,607.825745 
	C283.420837,613.094727 283.423035,618.363708 283.423035,623.943542 
	C298.170135,623.943542 312.290222,623.943542 327.378448,623.942688 
z"/>
<path fill="#FAF9FA" opacity="1.000000" stroke="none" 
	d="
M722.807434,609.721558 
	C723.456238,613.777771 721.867249,614.604431 718.414490,614.585632 
	C694.605347,614.455566 670.795105,614.541504 646.985168,614.566162 
	C646.167236,614.566956 645.349426,614.653259 644.109497,614.723633 
	C644.109497,617.660278 644.109497,620.503967 644.109497,623.813660 
	C670.194336,623.813660 696.104187,623.813660 722.435059,623.813660 
	C722.435059,631.819031 722.435059,639.391907 722.435059,647.587402 
	C721.110046,647.690430 719.527649,647.919617 717.945129,647.920715 
	C692.968323,647.937439 667.991577,647.923828 643.014771,647.919617 
	C633.288025,647.917969 624.959290,644.732239 619.567383,636.343872 
	C617.704041,633.444885 616.448364,629.631409 616.367249,626.201294 
	C616.013062,611.223694 616.187866,596.233398 616.180115,581.247742 
	C616.174011,569.475525 623.645203,560.370239 635.254761,557.993286 
	C636.395996,557.759583 637.549194,557.399963 638.695679,557.404297 
	C659.824402,557.483948 680.975525,557.062927 702.072571,557.937805 
	C714.164429,558.439148 722.748718,569.190308 722.784241,581.281372 
	C722.811584,590.605713 722.803772,599.930237 722.807434,609.721558 
M644.295471,581.392334 
	C644.041321,585.269897 643.787170,589.147461 643.488708,593.701233 
	C660.355164,593.701233 676.443176,593.737000 692.529724,593.599243 
	C693.362183,593.592102 694.818176,592.158325 694.894165,591.292969 
	C695.177979,588.062195 695.007568,584.791626 695.007568,581.072632 
	C677.972107,581.072632 661.548950,581.072632 644.295471,581.392334 
z"/>
<path fill="#F9F7F9" opacity="1.000000" stroke="none" 
	d="
M594.190063,585.332947 
	C581.351379,605.315308 568.786804,625.041016 555.970398,644.601807 
	C554.873901,646.275208 552.186523,647.538452 550.092773,647.792175 
	C545.988525,648.289551 541.738098,647.561340 537.628235,648.034912 
	C532.120483,648.669556 529.116821,646.436707 526.208191,641.792786 
	C509.486572,615.094482 492.382843,588.635559 475.424561,562.085266 
	C474.555023,560.723877 473.832275,559.268799 472.627533,557.119385 
	C483.326660,557.119385 493.366791,557.036804 503.400696,557.249878 
	C504.380493,557.270630 505.523499,558.983826 506.250488,560.127747 
	C517.728821,578.188782 529.149597,596.286438 540.594543,614.368774 
	C541.016907,615.036072 541.550903,615.632751 542.521484,616.900513 
	C547.534424,608.980103 552.265259,601.500549 557.000977,594.024048 
	C564.192139,582.671082 571.335022,571.286743 578.649780,560.013794 
	C579.499146,558.704712 581.287476,557.210571 582.676636,557.174133 
	C592.152893,556.925415 601.638794,557.043823 612.315735,557.043823 
	C606.024048,566.871643 600.210815,575.952148 594.190063,585.332947 
z"/>
<path fill="#F9F7F9" opacity="1.000000" stroke="none" 
	d="
M416.078064,581.055664 
	C413.291748,581.054871 410.995667,581.054871 408.267761,581.054871 
	C408.267761,603.414978 408.267761,625.333008 408.267761,647.597168 
	C398.955170,647.597168 390.070496,647.597168 380.384277,647.597168 
	C380.384277,644.254028 380.384308,640.818604 380.384277,637.383179 
	C380.384155,618.887146 380.882294,600.373230 380.216736,581.901184 
	C379.736084,568.560608 390.608704,558.151001 401.929688,557.623657 
	C422.678070,556.657104 443.503662,557.348328 464.596436,557.348328 
	C464.596436,565.124695 464.596436,572.717407 464.596436,581.056519 
	C448.725677,581.056519 432.646973,581.056519 416.078064,581.055664 
z"/>
<path fill="#F6F3F6" opacity="1.000000" stroke="none" 
	d="
M968.789185,643.778503 
	C961.398193,650.900940 952.625549,652.488647 943.152527,651.791992 
	C935.820740,651.252747 931.308960,646.687561 926.800049,640.798218 
	C926.521851,643.541687 926.243652,646.285156 925.935913,649.319702 
	C922.060303,649.319702 918.315491,649.319702 914.272766,649.319702 
	C914.272766,610.088867 914.272766,571.046082 914.272766,531.736145 
	C918.610474,531.736145 922.861084,531.736145 927.571533,531.736145 
	C927.571533,544.097900 927.571533,556.330872 927.571533,569.614319 
	C929.244080,568.139832 930.172363,567.370361 931.046509,566.543640 
	C944.682861,553.647339 967.113770,557.329346 974.464294,574.519836 
	C982.864624,594.165771 981.939209,614.471619 975.037292,634.462585 
	C973.894653,637.772217 971.053894,640.495605 968.789185,643.778503 
M929.067017,586.853638 
	C928.822754,588.666260 928.466309,590.471802 928.351990,592.292542 
	C927.528381,605.416870 926.760559,618.578247 931.858398,631.128906 
	C934.690552,638.101685 939.748779,641.223816 946.981079,641.002930 
	C954.096252,640.785767 958.723938,637.088379 961.247437,630.557007 
	C966.002625,618.249573 965.501709,605.444946 964.322815,592.709167 
	C963.875000,587.871399 962.266235,582.978394 960.326721,578.481323 
	C957.762939,572.536743 952.525513,570.308105 946.146545,570.269592 
	C939.901978,570.231873 935.196167,572.712097 932.300476,578.218201 
	C931.002136,580.686768 930.190613,583.411377 929.067017,586.853638 
z"/>
<path fill="#F6F3F6" opacity="1.000000" stroke="none" 
	d="
M793.315674,649.240295 
	C791.726013,649.130554 790.578613,649.019287 789.082581,648.874146 
	C789.082581,630.782959 789.087646,612.815247 789.078247,594.847473 
	C789.076355,591.350159 789.096008,587.850037 788.972046,584.355957 
	C788.490051,570.768860 778.819580,568.645569 769.284180,570.915466 
	C762.213928,572.598511 753.650635,580.346436 754.051758,590.610962 
	C754.805359,609.894897 754.268921,629.229248 754.268921,648.904541 
	C749.696350,648.904541 745.291077,648.904541 740.591858,648.904541 
	C740.591858,609.922668 740.591858,571.047485 740.591858,531.817749 
	C745.081848,531.817749 749.325500,531.817749 754.207764,531.817749 
	C754.207764,544.363403 754.207764,556.875061 754.207764,570.569824 
	C756.435974,568.548889 757.720398,567.370972 759.018677,566.208557 
	C767.482910,558.630371 782.203003,556.794312 792.245300,562.130920 
	C799.164551,565.807922 802.911377,571.785156 802.984619,579.459717 
	C803.204102,602.442871 803.063599,625.429443 803.063599,649.238708 
	C799.941467,649.238708 796.849731,649.238708 793.315674,649.240295 
z"/>
<path fill="#F6F3F6" opacity="1.000000" stroke="none" 
	d="
M826.301392,616.999512 
	C826.301392,598.526855 826.301392,580.554138 826.301392,562.216675 
	C830.852844,562.216675 835.233337,562.216675 840.179565,562.216675 
	C840.179565,566.267090 840.179688,570.373230 840.179565,574.479370 
	C840.179077,590.295532 840.175720,606.111694 840.178650,621.927856 
	C840.181274,635.970215 843.205261,640.529846 852.797546,640.975891 
	C865.328674,641.558655 874.105896,634.609680 874.886902,622.457520 
	C875.579712,611.677551 875.267944,600.830994 875.331909,590.013367 
	C875.386047,580.870117 875.343140,571.726379 875.343140,562.235107 
	C879.849976,562.235107 884.094055,562.235107 888.815063,562.235107 
	C888.815063,591.077026 888.815063,620.079163 888.815063,649.551514 
	C885.416138,649.551514 881.423279,650.609253 878.736877,649.191467 
	C876.846375,648.193665 876.732117,643.830017 875.730591,640.672424 
	C875.029724,641.487549 874.157593,642.363892 873.444885,643.354797 
	C870.500122,647.449158 866.644104,650.438843 861.629639,650.883789 
	C855.199768,651.454468 848.620972,652.038391 842.259888,651.297913 
	C832.627747,650.176636 826.752991,642.534729 826.333557,631.982544 
	C826.141907,627.162048 826.301208,622.327637 826.301392,616.999512 
z"/>
<path fill="#F6F3F6" opacity="1.000000" stroke="none" 
	d="
M560.980164,666.746094 
	C554.687927,666.582397 548.396179,666.301147 542.103394,666.274841 
	C508.727509,666.135193 475.351349,666.059570 441.548584,665.664429 
	C441.218719,665.059082 441.209808,664.754211 441.095154,664.452393 
	C475.700073,664.246277 510.304810,663.998108 544.909973,663.843445 
	C601.482300,663.590698 658.054932,663.398743 715.136780,663.544922 
	C715.468201,665.122314 715.290283,666.335938 715.112366,667.549561 
	C674.714478,667.333801 634.316650,667.117981 593.090332,666.786804 
	C581.834595,666.696350 571.407410,666.721191 560.980164,666.746094 
z"/>
<path fill="#D5C5D9" opacity="1.000000" stroke="none" 
	d="
M229.004150,539.875000 
	C260.954529,539.614380 292.404510,539.338501 323.855011,539.148132 
	C325.129364,539.140381 326.408661,539.940613 327.685638,540.364380 
	C327.582550,540.852722 327.479462,541.341003 327.376373,541.829346 
	C300.578674,541.829346 273.779602,541.997620 246.983627,541.781860 
	C220.365463,541.567566 193.750412,540.966919 167.134109,541.336914 
	C187.590698,540.849609 208.047272,540.362244 229.004150,539.875000 
z"/>
<path fill="#D5C5D9" opacity="1.000000" stroke="none" 
	d="
M181.001862,608.570435 
	C152.986435,608.066101 125.471123,607.562012 97.955818,607.057922 
	C97.902229,607.445007 97.848648,607.832092 97.795067,608.219177 
	C99.561119,608.467590 101.333084,608.967163 103.092316,608.925720 
	C120.845390,608.507996 138.594772,607.928528 156.348373,607.539612 
	C176.466019,607.098877 196.586517,606.781738 216.706573,606.460022 
	C226.857254,606.297729 237.009644,606.198975 247.161301,606.195374 
	C248.488113,606.194885 249.815186,606.934448 251.142120,607.331299 
	C251.012207,607.744446 250.882278,608.157532 250.752350,608.570679 
	C227.668900,608.570679 204.585434,608.570679 181.001862,608.570435 
z"/>
<path fill="#D5C5D9" opacity="1.000000" stroke="none" 
	d="
M246.480804,574.548706 
	C248.323044,575.156860 249.734268,575.765259 251.145493,576.373657 
	C249.787903,576.898865 248.425552,577.894409 247.073410,577.880676 
	C211.112656,577.516602 175.152283,577.093750 139.193832,576.548889 
	C133.854706,576.467957 128.525574,575.728210 123.161316,576.219849 
	C164.124146,575.662842 205.086960,575.105896 246.480804,574.548706 
z"/>
<path fill="#D5C5D9" opacity="1.000000" stroke="none" 
	d="
M634.404480,545.135010 
	C655.205444,544.984009 676.006531,544.844299 696.807312,544.674500 
	C702.465332,544.628296 708.125549,544.363586 713.777954,544.493774 
	C715.063721,544.523315 716.321289,545.776367 717.591797,546.466309 
	C716.311340,547.100891 715.025085,548.299988 713.751282,548.286865 
	C687.446960,548.016113 661.144043,547.607483 634.344116,546.871704 
	C634.033081,546.056458 634.218811,545.595764 634.404480,545.135010 
z"/>
<path fill="#2A1135" opacity="1.000000" stroke="none" 
	d="
M633.905762,545.085938 
	C634.218811,545.595764 634.033081,546.056458 633.869507,546.897583 
	C629.386597,548.185120 624.881042,549.814575 620.376343,549.812378 
	C615.017883,549.809814 609.677246,548.250427 604.296753,547.656860 
	C599.821716,547.163208 595.300171,547.090820 590.799255,546.831787 
	C590.802795,546.233521 590.806396,545.635193 590.809998,545.036926 
	C605.008972,545.036926 619.208008,545.036926 633.905762,545.085938 
z"/>
<path fill="#D5C5D9" opacity="1.000000" stroke="none" 
	d="
M440.633728,664.332031 
	C441.209808,664.754211 441.218719,665.059082 441.087708,665.596436 
	C433.132935,666.198059 425.211334,666.888733 417.292053,666.862671 
	C407.200928,666.829468 397.111420,666.224121 387.022278,665.838501 
	C386.241943,665.808716 384.956970,665.797119 384.773224,665.387939 
	C382.996216,661.430176 380.862366,664.088867 377.878662,664.906311 
	C399.272827,664.667725 419.722534,664.439697 440.633728,664.332031 
z"/>
<path fill="#2A1135" opacity="1.000000" stroke="none" 
	d="
M697.991211,659.997559 
	C702.798584,659.997559 707.107971,659.997559 711.417358,659.997559 
	C711.415527,660.210388 711.413757,660.423279 711.411926,660.636108 
	C688.404419,660.636108 665.396973,660.636108 642.389465,660.636108 
	C642.387512,660.423279 642.385498,660.210388 642.383545,659.997559 
	C660.753479,659.997559 679.123352,659.997559 697.991211,659.997559 
z"/>
<path fill="#2A1135" opacity="1.000000" stroke="none" 
	d="
M561.194824,667.042297 
	C571.407410,666.721191 581.834595,666.696350 592.625366,666.855591 
	C590.240662,667.359802 587.490051,667.967834 584.744690,667.945190 
	C576.965149,667.881104 569.187805,667.559021 561.194824,667.042297 
z"/>
<path fill="#2A1135" opacity="1.000000" stroke="none" 
	d="
M353.781250,666.020996 
	C347.053406,666.020447 340.792786,666.020447 334.532166,666.020447 
	C334.530121,665.792236 334.528046,665.564026 334.525970,665.335815 
	C342.859161,665.335815 351.192352,665.335815 359.525513,665.335815 
	C359.551605,665.564392 359.577667,665.792969 359.603760,666.021545 
	C357.818665,666.021545 356.033569,666.021545 353.781250,666.020996 
z"/>
<path fill="#2A1135" opacity="1.000000" stroke="none" 
	d="
M715.537903,667.658142 
	C715.290283,666.335938 715.468201,665.122314 715.574158,663.539368 
	C716.911987,663.866882 718.321838,664.563660 719.731628,665.260498 
	C718.475586,666.095947 717.219543,666.931335 715.537903,667.658142 
z"/>
<path fill="#2A1135" opacity="1.000000" stroke="none" 
	d="
M326.894409,623.943115 
	C312.290222,623.943542 298.170135,623.943542 283.423035,623.943542 
	C283.423035,618.363708 283.420837,613.094727 283.423523,607.825745 
	C283.427429,600.174255 283.448517,592.522705 283.431824,584.871216 
	C283.427277,582.785400 283.276794,580.872681 286.365753,580.886902 
	C302.149811,580.959534 317.934387,580.920471 334.162811,580.920471 
	C334.162811,595.313293 334.162811,609.321716 334.162811,623.942688 
	C331.907196,623.942688 329.642822,623.942688 326.894409,623.943115 
z"/>
<path fill="#2A1135" opacity="1.000000" stroke="none" 
	d="
M644.710632,581.232483 
	C661.548950,581.072632 677.972107,581.072632 695.007568,581.072632 
	C695.007568,584.791626 695.177979,588.062195 694.894165,591.292969 
	C694.818176,592.158325 693.362183,593.592102 692.529724,593.599243 
	C676.443176,593.737000 660.355164,593.701233 643.488708,593.701233 
	C643.787170,589.147461 644.041321,585.269897 644.710632,581.232483 
z"/>
<path fill="#2A1135" opacity="1.000000" stroke="none" 
	d="
M929.112549,586.436768 
	C930.190613,583.411377 931.002136,580.686768 932.300476,578.218201 
	C935.196167,572.712097 939.901978,570.231873 946.146545,570.269592 
	C952.525513,570.308105 957.762939,572.536743 960.326721,578.481323 
	C962.266235,582.978394 963.875000,587.871399 964.322815,592.709167 
	C965.501709,605.444946 966.002625,618.249573 961.247437,630.557007 
	C958.723938,637.088379 954.096252,640.785767 946.981079,641.002930 
	C939.748779,641.223816 934.690552,638.101685 931.858398,631.128906 
	C926.760559,618.578247 927.528381,605.416870 928.351990,592.292542 
	C928.466309,590.471802 928.822754,588.666260 929.112549,586.436768 
z"/>
</svg>